<?xml version="1.0" encoding="UTF-8" standalone="no"?>
<svg width="56px" height="50px" viewBox="0 0 56 50" version="1.1" xmlns="http://www.w3.org/2000/svg" xmlns:xlink="http://www.w3.org/1999/xlink" xmlns:sketch="http://www.bohemiancoding.com/sketch/ns">
    <!-- Generator: Sketch 3.1.1 (8761) - http://www.bohemiancoding.com/sketch -->
    <title>Shape</title>
    <desc>Created with Sketch.</desc>
    <defs></defs>
    <g id="Welcome" stroke="none" stroke-width="1" fill="none" fill-rule="evenodd" sketch:type="MSPage">
        <g id="logged-screen" sketch:type="MSArtboardGroup" transform="translate(-233.000000, -386.000000)" fill="#42535F">
            <g id="Group" sketch:type="MSLayerGroup" transform="translate(-534.000000, 0.000000)">
                <g id="card-1" transform="translate(550.000000, 104.000000)" sketch:type="MSShapeGroup">
                    <g id="car" transform="translate(221.000000, 284.000000)">
                        <path d="M42.4533333,2.65125 C41.9066667,1.1025 40.4133333,0 38.6666667,0 L9.33333333,0 C7.58666667,0 6.09333333,1.1025 5.54666667,2.65125 L0,18.375 L0,39.375 C0,40.81875 1.2,42 2.66666667,42 L5.33333333,42 C6.81333333,42 8,40.81875 8,39.375 L8,36.75 L40,36.75 L40,39.375 C40,40.81875 41.2,42 42.6666667,42 L45.3333333,42 C46.8133333,42 48,40.81875 48,39.375 L48,18.375 L42.4533333,2.65125 L42.4533333,2.65125 Z M9.33333333,28.875 C7.12,28.875 5.33333333,27.11625 5.33333333,24.9375 C5.33333333,22.75875 7.12,21 9.33333333,21 C11.5466667,21 13.3333333,22.75875 13.3333333,24.9375 C13.3333333,27.11625 11.5466667,28.875 9.33333333,28.875 L9.33333333,28.875 Z M38.6666667,28.875 C36.4533333,28.875 34.6666667,27.11625 34.6666667,24.9375 C34.6666667,22.75875 36.4533333,21 38.6666667,21 C40.88,21 42.6666667,22.75875 42.6666667,24.9375 C42.6666667,27.11625 40.88,28.875 38.6666667,28.875 L38.6666667,28.875 Z M5.33333333,15.75 L9.33333333,3.9375 L38.6666667,3.9375 L42.6666667,15.75 L5.33333333,15.75 L5.33333333,15.75 Z" id="Shape"></path>
                    </g>
                </g>
            </g>
        </g>
    </g>
</svg>