<?xml version="1.0" encoding="UTF-8" standalone="no"?>
<svg width="48px" height="48px" viewBox="0 0 48 48" version="1.1" xmlns="http://www.w3.org/2000/svg" xmlns:xlink="http://www.w3.org/1999/xlink" xmlns:sketch="http://www.bohemiancoding.com/sketch/ns">
    <!-- Generator: Sketch 3.1.1 (8761) - http://www.bohemiancoding.com/sketch -->
    <title>timer</title>
    <desc>Created with Sketch.</desc>
    <defs></defs>
    <g id="Welcome" stroke="none" stroke-width="1" fill="none" fill-rule="evenodd" sketch:type="MSPage">
        <g id="logged-screen" sketch:type="MSArtboardGroup" transform="translate(-28.000000, -118.000000)" fill="#42535F">
            <g id="Group" sketch:type="MSLayerGroup" transform="translate(-534.000000, 0.000000)">
                <g id="card-1" transform="translate(550.000000, 104.000000)" sketch:type="MSShapeGroup">
                    <g id="date-time" transform="translate(16.000000, 16.000000)">
                        <g id="timer">
                            <path d="M19.99,0 C8.94,0 0,8.95 0,20 C0,31.05 8.94,40 19.99,40 C31.04,40 40,31.05 40,20 C40,8.95 31.04,0 19.99,0 L19.99,0 Z M20,36 C11.16,36 4,28.84 4,20 C4,11.16 11.16,4 20,4 C28.84,4 36,11.16 36,20 C36,28.84 28.84,36 20,36 L20,36 Z" id="Shape"></path>
                            <path d="M21,10 L18,10 L18,22 L28.49,28.3 L30,25.84 L21,20.5 L21,10 Z" id="Shape"></path>
                        </g>
                    </g>
                </g>
            </g>
        </g>
    </g>
</svg>