<?xml version="1.0" encoding="UTF-8" standalone="no"?>
<svg width="75px" height="51px" viewBox="0 0 75 51" version="1.1" xmlns="http://www.w3.org/2000/svg" xmlns:xlink="http://www.w3.org/1999/xlink" xmlns:sketch="http://www.bohemiancoding.com/sketch/ns">
    <!-- Generator: Sketch 3.1.1 (8761) - http://www.bohemiancoding.com/sketch -->
    <title>Shape</title>
    <desc>Created with Sketch.</desc>
    <defs></defs>
    <g id="Welcome" stroke="none" stroke-width="1" fill="none" fill-rule="evenodd" sketch:type="MSPage">
        <g id="logged-screen" sketch:type="MSArtboardGroup" transform="translate(-537.000000, -386.000000)" fill="#42535F">
            <g id="Group" sketch:type="MSLayerGroup" transform="translate(-534.000000, 0.000000)">
                <g id="card-1" transform="translate(550.000000, 104.000000)" sketch:type="MSShapeGroup">
                    <g id="places-number" transform="translate(496.000000, 283.000000)">
                        <path d="M74.2916667,19.3144531 C79.2566667,19.3144531 83.2616667,15.2794531 83.2616667,10.3144531 C83.2616667,5.34945313 79.2566667,1.31445312 74.2916667,1.31445312 C69.3266667,1.31445312 65.2916667,5.34945312 65.2916667,10.3144531 C65.2916667,15.2794531 69.3266667,19.3144531 74.2916667,19.3144531 L74.2916667,19.3144531 Z M50.2916667,19.3144531 C55.2566667,19.3144531 59.2616667,15.2794531 59.2616667,10.3144531 C59.2616667,5.34945313 55.2566667,1.31445312 50.2916667,1.31445312 C45.3266667,1.31445312 41.2916667,5.34945312 41.2916667,10.3144531 C41.2916667,15.2794531 45.3266667,19.3144531 50.2916667,19.3144531 L50.2916667,19.3144531 Z M50.2916667,25.3144531 C43.2866667,25.3144531 29.2916667,28.8244531 29.2916667,35.8144531 L29.2916667,43.3144531 L71.2916667,43.3144531 L71.2916667,35.8144531 C71.2916667,28.8244531 57.2966667,25.3144531 50.2916667,25.3144531 L50.2916667,25.3144531 Z M74.2916667,25.3144531 C73.4216667,25.3144531 72.4466667,25.3744531 71.3966667,25.4794531 C74.8766667,27.9844531 77.2916667,31.3594531 77.2916667,35.8144531 L77.2916667,43.3144531 L95.2916667,43.3144531 L95.2916667,35.8144531 C95.2916667,28.8244531 81.2966667,25.3144531 74.2916667,25.3144531 L74.2916667,25.3144531 Z" id="Shape"></path>
                    </g>
                </g>
            </g>
        </g>
    </g>
</svg>